<?xml version="1.0" encoding="utf-8"?>
<!-- Generator: Adobe Illustrator 26.0.3, SVG Export Plug-In . SVG Version: 6.00 Build 0)  -->
<svg version="1.1" id="Layer_1" xmlns="http://www.w3.org/2000/svg" xmlns:xlink="http://www.w3.org/1999/xlink" x="0px" y="0px"
	 viewBox="0 0 227.19 240" style="enable-background:new 0 0 227.19 240;" xml:space="preserve">
<style type="text/css">
	.st0{fill:#ECECEC;}
	.st1{fill:#FF6C37;}
	.st2{fill:#515151;}
	.st3{fill:#1C1C1B;}
	.st4{fill:#333333;}
	.st5{fill:#FFFFFF;}
	.st6{fill-rule:evenodd;clip-rule:evenodd;fill:#FFFFFF;}
	.st7{display:none;fill:#ECECEC;}
	.st8{fill:#666666;}
	.st9{fill:none;stroke:#FFFFFF;stroke-width:2.8346;stroke-miterlimit:10;}
	.st10{fill:none;stroke:#FFFFFF;stroke-width:2.8319;stroke-miterlimit:10;}
</style>
<g>
	<g>
		<circle class="st1" cx="26.89" cy="119.01" r="2.84"/>
		<circle class="st1" cx="197.53" cy="119.01" r="2.84"/>
	</g>
	<g>
		<g>
			<g>
				<path class="st0" d="M37.34,87.6c1.69,0.74,2.12-0.04,2.46-0.8l0.22,0.09l-1.88,4.29l-0.22-0.09c0.29-0.67-0.15-1.2-1.33-1.72
					l-6.49-2.85c-0.94-0.41-1.64-0.36-1.94,0.32l-0.22-0.09l1.38-3.14c1.26-2.88,2.57-4.67,5.05-3.58s2.04,3.26,0.77,6.13
					l-0.17,0.39L37.34,87.6z M34.92,86.07c0.7-1.59,1.19-2.91-1.43-4.06c-2.66-1.17-3.28,0.13-3.97,1.69l-0.17,0.39l5.39,2.37
					L34.92,86.07z"/>
				<path class="st0" d="M51.58,67.95l-0.78,1.07c-1.44,1.96-1.25,1.69-4.61,0.49c-1.61-0.58-2.51,0.66-2.63,0.82l-0.44,0.6
					l2.67,1.94c0.88,0.64,1.51,0.55,1.9,0.02l0.19,0.14l-2.4,3.3l-0.19-0.14c0.4-0.55,0.27-1.12-0.71-1.82l-6.22-4.53
					c-0.79-0.58-1.27-0.48-1.68,0.08l-0.19-0.14l2.03-2.8c1.85-2.54,3.33-3.93,5.46-2.38c1.65,1.2,1.47,2.6,0.55,4.13
					c0.59-0.86,1.6-1.57,4.61-0.35c1.16,0.45,1.97-0.27,2.24-0.58L51.58,67.95z M38.72,67.13l-0.29,0.4l4.49,3.27l0.29-0.4
					c0.98-1.35,1.75-2.4-0.5-4.04C40.45,64.71,39.67,65.83,38.72,67.13z"/>
				<path class="st0" d="M61.33,53.87l2.21,2.53l-6.34,5.54l-0.16-0.18c0.5-0.44,0.21-1.11-0.5-1.91l-4.73-5.41
					c-0.64-0.74-1.26-1.15-1.78-0.69l-0.16-0.18l6.18-5.41l1.92,2.2l-0.18,0.16c-1.96-1.83-4.61,0.46-5.1,0.89l-0.53,0.47l3.39,3.88
					l0.59-0.52c0.17-0.15,1.7-1.49,0.73-2.78l0.18-0.16l2.29,2.62l-0.18,0.16c-1.17-1.14-2.71,0.21-2.87,0.35l-0.59,0.52l3.46,3.96
					l0.49-0.43c0.52-0.46,3.17-2.73,1.47-5.44L61.33,53.87z"/>
				<path class="st0" d="M74.53,49.36c-2.45,1.37-3.98,1.15-3.98,1.15l-1.48-2.65l0.21-0.12c0.92,1.13,2.74,2.74,5.14,1.4
					c1.78-0.99,0.94-3.36-1.37-3.63l-2.98-0.18c-2.23-0.13-3.95-0.89-3.72-3.08c0,0,0.08-1.44,2.14-2.58
					c2.18-1.21,3.71-1.2,3.71-1.2l1.29,2.32l-0.21,0.12c-0.78-0.94-2.43-2.28-4.68-1.03c-1.49,0.83-1.29,3.17,1.34,3.35l3.01,0.22
					c2.51,0.19,3.89,1.39,3.74,3.21C76.7,46.67,76.71,48.15,74.53,49.36z"/>
				<path class="st0" d="M89.69,42.9c-2.69,0.83-4.14,0.31-4.14,0.31l-0.9-2.9l0.23-0.07c0.67,1.3,2.11,3.25,4.74,2.44
					c1.95-0.6,1.62-3.1-0.59-3.83l-2.87-0.8c-2.15-0.59-3.68-1.69-3.01-3.78c0,0,0.38-1.39,2.63-2.09c2.38-0.74,3.88-0.41,3.88-0.41
					l0.78,2.53l-0.23,0.07c-0.57-1.08-1.9-2.73-4.36-1.97c-1.63,0.5-1.92,2.84,0.62,3.56l2.91,0.84c2.42,0.71,3.51,2.17,3,3.92
					C92.37,40.72,92.08,42.17,89.69,42.9z"/>
				<path class="st0" d="M117.45,39.49c-2.81-0.14-3.99-1.13-3.99-1.13l0.15-3.03l0.24,0.01c0.18,1.45,0.87,3.78,3.62,3.91
					c2.03,0.1,2.59-2.35,0.76-3.81l-2.43-1.74c-1.82-1.29-2.88-2.85-1.53-4.58c0,0,0.83-1.18,3.18-1.06
					c2.49,0.13,3.78,0.95,3.78,0.95l-0.13,2.65l-0.24-0.01c-0.16-1.21-0.85-3.22-3.42-3.35c-1.7-0.09-2.77,2.01-0.64,3.56l2.44,1.78
					c2.03,1.49,2.56,3.24,1.47,4.71C120.71,38.36,119.94,39.62,117.45,39.49z"/>
				<path class="st0" d="M141.92,32.6l-0.78,2.88l-0.23-0.06c0.62-2.63-2.27-3.46-2.37-3.49l-0.59-0.16l-2.4,8.84
					c-0.28,1.02,0.18,1.59,0.82,1.76l-0.06,0.23l-4.27-1.16l0.06-0.23c0.64,0.17,1.32-0.09,1.59-1.11l2.4-8.84l-0.59-0.16
					c-0.23-0.06-3-0.76-3.8,1.82l-0.23-0.06l0.78-2.88L141.92,32.6z"/>
				<path class="st0" d="M149.55,43.53l2.72-4.98c0.48-0.89,0.23-1.44-0.38-1.77l0.11-0.21l3.94,2.15l-0.11,0.21
					c-0.6-0.33-1.3-0.48-1.87,0.56l-2.77,5.07c-0.92,1.68-0.43,3.22,0.99,3.99c1.23,0.67,2.9,0.36,3.86-1.4l2.15-3.94
					c0.36-0.67,1.27-2.33-0.5-3.28l0.11-0.21l3.89,2.13l-0.11,0.21c-1.95-1.08-2.83,0.6-3.19,1.26l-2.15,3.94
					c-1.48,2.74-3.8,2.37-5.27,1.57C149.14,47.84,148.31,45.79,149.55,43.53z"/>
				<path class="st0" d="M165.97,59.07l-2.81-2.55l0.16-0.18c0.5,0.46,1.31,0.23,2.03-0.57l4.75-5.24c0.66-0.72,0.88-1.61,0.37-2.08
					l0.16-0.17l2.81,2.55c2.33,2.11,4.12,5.04,1.01,8.47C171.29,62.79,168.3,61.18,165.97,59.07z M173.28,51.01l-0.51-0.47
					l-7.15,7.88l0.51,0.47c1.19,1.08,3.18,2.61,6.6-1.16C176.09,54.03,174.5,52.11,173.28,51.01z"/>
				<path class="st0" d="M187.72,66.69l-0.19,0.14c-0.41-0.54-1.01-0.78-1.8-0.2l-6.22,4.63c-0.86,0.64-0.91,1.39-0.52,1.92
					l-0.19,0.14l-2.63-3.53l0.19-0.14c0.41,0.54,1.13,0.7,1.99,0.05l6.22-4.63c0.79-0.59,0.74-1.22,0.33-1.78l0.19-0.14
					L187.72,66.69z"/>
				<path class="st0" d="M185.45,85.08c-1.49-3.14-0.02-5.84,2.82-7.19c2.83-1.34,6-0.83,7.49,2.31c1.49,3.14-0.13,5.92-2.96,7.26
					C189.95,88.8,186.94,88.22,185.45,85.08z M195.54,80.31c-0.8-1.7-2.4-2.22-6.31-0.37c-3.93,1.86-4.37,3.35-3.57,5.04
					c0.8,1.68,2.23,2.27,6.15,0.41C195.73,83.54,196.34,81.99,195.54,80.31z"/>
			</g>
			<g>
				<path class="st0" d="M30.61,157.35l-1.49-3.16l0.13-0.06c0.29,0.61,1.12,0.49,2.09,0.03l6.4-3.02c0.89-0.42,1.62-1.01,1.32-1.64
					l0.11-0.05l1.49,3.16c0.94,1.99,1.76,3.76-0.67,4.91c-2.17,1.02-3.49-1.03-3.62-1.31c0.44,0.93,1.31,3.22-1.12,4.37
					C32.77,161.74,31.78,159.82,30.61,157.35z M35.67,155.15l-0.34-0.71l-4.77,2.25l0.28,0.6c0.61,1.3,1.17,2.56,3.61,1.4
					C36.74,157.61,36.15,156.17,35.67,155.15z M40.19,152.15l-4.64,2.19l0.34,0.71c0.39,0.83,1.17,1.7,3.31,0.69
					c2.11-1,1.64-2.22,1.28-2.99L40.19,152.15z"/>
				<path class="st0" d="M46.25,181.02L45.41,180c-1.53-1.89-1.32-1.63,0.69-4.59c0.97-1.41,0-2.59-0.13-2.75l-0.47-0.57l-2.55,2.09
					c-0.84,0.69-0.92,1.32-0.49,1.84l-0.18,0.15l-2.58-3.15l0.18-0.15c0.43,0.53,1.01,0.54,1.94-0.22l5.95-4.88
					c0.76-0.62,0.78-1.11,0.34-1.65l0.18-0.15l2.19,2.67c1.99,2.43,2.96,4.21,0.92,5.88c-1.57,1.29-2.88,0.77-4.14-0.51
					c0.69,0.79,1.12,1.94-0.82,4.55c-0.73,1.01-0.24,1.97,0,2.31L46.25,181.02z M50.29,168.78l-0.31-0.38l-4.3,3.53l0.31,0.38
					c1.06,1.29,1.88,2.29,4.03,0.53C52.2,171.06,51.31,170.03,50.29,168.78z"/>
				<path class="st0" d="M64.59,196.31l-3.3-2.37l0.14-0.19c0.85,0.61,1.2-0.73,1.31-1.2l0.33-1.32l-3.18-2.28
					c-0.55,0.38-2.66,1.9-0.7,3.19l-0.14,0.19l-3.02-2.16l0.14-0.19c0.42,0.28,0.73,0.53,4.06-1.62l6.39-4.28l0.17,0.12
					c-1.7,7.36-2.41,10.17-2.41,10.17c-0.31,1.33,0.03,1.48,0.36,1.75L64.59,196.31z M63.12,190.98l1.28-5.15l-4.35,2.95
					L63.12,190.98z"/>
				<path class="st0" d="M92.08,196.52L92,196.74c-2.19-0.8-3.17,2.05-3.41,2.73l-2.42,6.73l-0.64-0.23l-3.47-10.46l-1.58,4.4
					c-0.24,0.67-1.28,3.53,0.72,4.25l-0.08,0.22l-4.4-1.58l0.08-0.22c2.18,0.78,3.21-2.08,3.45-2.75l1.66-4.64l-0.32-0.97
					c-0.52-1.53-1-1.55-1.38-1.72l0.08-0.22l3.2,1.15l3.4,10.06l1.47-4.1c0.25-0.68,1.26-3.52-0.73-4.22l0.08-0.22L92.08,196.52z"/>
				<path class="st0" d="M105.81,209.92l-3.78-0.25l0.02-0.24c0.68,0.04,1.16-0.64,1.24-1.71l0.46-7.06c0.06-0.98-0.31-1.81-1-1.85
					l0.02-0.24l3.78,0.25c3.14,0.21,6.36,1.38,6.06,6C112.29,209.53,108.95,210.13,105.81,209.92z M106.52,199.07l-0.69-0.05
					l-0.7,10.62l0.69,0.05c1.61,0.11,4.11,0.06,4.44-5.01C110.6,199.69,108.16,199.18,106.52,199.07z"/>
				<path class="st0" d="M133.26,204.63l0.62,3.31l-8.27,1.55l-0.04-0.23c0.65-0.12,0.74-0.85,0.54-1.9l-1.32-7.06
					c-0.18-0.96-0.5-1.63-1.18-1.5l-0.04-0.23l8.07-1.51l0.54,2.87l-0.23,0.04c-0.75-2.57-4.2-1.95-4.84-1.83l-0.7,0.13l0.95,5.06
					l0.78-0.15c0.22-0.04,2.22-0.41,2.05-2.02l0.23-0.04l0.64,3.41l-0.23,0.04c-0.42-1.58-2.44-1.2-2.64-1.16l-0.78,0.15l0.97,5.17
					l0.64-0.12c0.68-0.13,4.12-0.74,4.04-3.94L133.26,204.63z"/>
				<path class="st0" d="M150.84,202.24c-2.56,1.16-4.07,0.82-4.07,0.82l-1.25-2.76l0.22-0.1c0.82,1.21,2.5,2.96,5,1.83
					c1.86-0.84,1.22-3.27-1.06-3.73l-2.95-0.43c-2.21-0.32-3.86-1.22-3.45-3.38c0,0,0.2-1.43,2.35-2.4
					c2.27-1.03,3.79-0.88,3.79-0.88l1.09,2.42l-0.22,0.1c-0.7-1-2.23-2.48-4.57-1.42c-1.55,0.7-1.55,3.06,1.06,3.46l2.99,0.47
					c2.49,0.4,3.76,1.72,3.46,3.51C153.23,199.74,153.11,201.22,150.84,202.24z"/>
				<path class="st0" d="M161.98,182.52l0.14,0.19c-0.55,0.4-0.79,1.01-0.22,1.8l4.56,6.27c0.63,0.87,1.38,0.93,1.92,0.54l0.14,0.19
					l-3.56,2.59l-0.14-0.19c0.55-0.4,0.71-1.12,0.08-1.99l-4.56-6.27c-0.58-0.79-1.22-0.76-1.78-0.35l-0.14-0.19L161.98,182.52z"/>
				<path class="st0" d="M181.7,172.43l0.18,0.16c-0.61,0.69-0.54,0.95,2.04,3.23c-0.36,0.98-1.07,2.21-2.19,3.48
					c-2.26,2.56-5.48,2.35-7.83,0.27c-2.36-2.08-2.97-5.25-0.71-7.81c1.17-1.33,2.16-2.12,3.29-2.42l1.89,1.82l-0.29,0.33
					c-2.14-1.42-3.48-0.97-4.72,0.43c-1.19,1.35-1.09,2.93,2.17,5.8c3.26,2.87,4.86,2.75,6.03,1.42c1.22-1.38,1.31-1.98,0.23-2.93
					c-1.69-1.49-1.96-1.29-2.61-0.55L179,175.5L181.7,172.43z"/>
				<path class="st0" d="M187.76,148.57l0.21,0.1c-1.04,2.1,1.7,3.37,2.35,3.69l6.44,3.13l-0.3,0.61l-10.78,2.33l4.2,2.04
					c0.64,0.31,3.37,1.66,4.31-0.26l0.21,0.1l-2.04,4.2l-0.21-0.1c1.02-2.09-1.73-3.42-2.37-3.73l-4.43-2.15l-1,0.22
					c-1.58,0.36-1.65,0.83-1.86,1.19l-0.21-0.1l1.48-3.05l10.37-2.3l-3.92-1.91c-0.65-0.32-3.37-1.64-4.28,0.27l-0.21-0.1
					L187.76,148.57z"/>
			</g>
		</g>
		<g>
			<g>
				<path class="st1" d="M159.35,84.16c-2.6,7.67-7.87,15.57-11.66,20.42c-5.86,7.51-14.1,7.09-17.39,5.84
					c-0.53-0.2-0.1-0.7,0.17-0.92c0.39-0.32,0.88-0.6,1.28-0.91c0.51-0.39,1.03-0.9,1.42-1.4c18.85-24.24,20.03-38.08,17.26-39.04
					c-1.02-0.37-18.43-1.1-40.21,13.65c-5.47,3.71-10.48,8.08-14.83,13.06c-2.65,3.02-4.99,6.19-4.19,7.47
					c0.67,1.08,5.15,2.35,13.09,4.94c1.31,0.43,2.13,2.1,2.08,3.2c-0.04,0.98-0.13,0.94-0.21,2.09c-0.02,0.26-0.28,0.44-0.53,0.36
					c-7.3-2.34-14.21-3.55-21.72-5.13c-1.26-0.26-0.79-1.2-0.61-1.82c0.01-0.04-0.04-0.08-0.08-0.04c-1.66,1.9-3.97,4.77-5.64,6.82
					c-3.92,4.81,26.1,1.5,29.51,11.8c3.35-19.88,3.36-31.43,3.72-32.12c2.26-4.3,9.38-5.03,9.79-3.53
					c0.53,1.96-1.15,14.39-2.99,23.35c8.98,3.67,18.16,7.73,22.5,12.41c4.36,4.72,4.77,12.29,2.67,15.95
					c-8.49,14.78-30.63,28.9-51.39,32.53c-3.35,0.59-6.67,0.9-9.88,0.9c0,0-4.79,0.16-9.11-0.9c-3.34-0.82-6.4-2.36-6.76-5.26v-0.04
					c-0.02-0.16-0.08-0.72-0.3-1.25c-0.01-0.03-0.02-0.05-0.03-0.08c-0.03-0.06-0.06-0.12-0.09-0.18c-0.02-0.04-0.04-0.07-0.06-0.1
					c-0.04-0.06-0.06-0.11-0.07-0.15c-0.67-1.37-1.07-2.6-1.19-3.2c-0.43-2.13,0.14-5.11,1.44-8.37c2.97-7.44,9.75-16.3,17.2-19.7
					c6.11-2.79,11.79,0.3,13.56,2.08c0.26,0.26,0.11,0.7-0.26,0.73c-10.05,0.83-26.96,26.1-23.88,29.71
					c6.87,8.06,52.29-8.52,64.21-36.39c0.85-1.99,0.26-3.57-1.56-5.08c-6.07-5.05-20.11-9.63-21.28-10.14
					c-0.07-0.03-0.13,0.06-0.06,0.11c0.43,0.34,1.13,1,1.84,1.74c0.72,0.75,1.02,1.82,0.8,2.84c-3.12,14.61-5.65,25.24-4.64,27.96
					c0.83,2.23-6.5-3.49-7.02-6.47c-0.34-1.9,0.59-4.34,1.27-9.97c0.32-2.4,0.77-7.7-4.39-9.53c-6.57-2.32-17.98-2.82-27.66-3.94
					c-4.03-0.47-3.61-11.82-1.56-14.38c3.21-4.02,31.9-33.47,67.2-39.21c1.34-0.22,2.69-0.4,4.05-0.55
					c5.67-0.72,9.15-0.27,11.31,0.55c2.19,0.83,3.02,2.05,3.4,2.82c0.17,0.36,0.37,0.69,0.63,0.99c0.31,0.37,0.6,0.74,0.85,1.11
					c0.56,0.82,0.96,1.64,1.16,2.41C161.4,75.75,160.78,79.92,159.35,84.16z"/>
			</g>
		</g>
	</g>
</g>
</svg>
