<?xml version="1.0" encoding="utf-8"?>
<!-- Generator: Adobe Illustrator 26.0.3, SVG Export Plug-In . SVG Version: 6.00 Build 0)  -->
<svg version="1.1" id="Layer_1" xmlns="http://www.w3.org/2000/svg" xmlns:xlink="http://www.w3.org/1999/xlink" x="0px" y="0px"
	 viewBox="0 0 201.12 57.01" style="enable-background:new 0 0 201.12 57.01;" xml:space="preserve">
<style type="text/css">
	.st0{fill:#FF6C37;}
	.st1{fill:#333333;}
</style>
<g>
	<g>
		<path d="M50.12,56.1l0.62-1.37c0.66,0.48,1.65,0.82,2.59,0.82c1.08,0,1.51-0.36,1.51-0.84c0-1.47-4.56-0.46-4.56-3.37
			c0-1.33,1.08-2.44,3.31-2.44c0.99,0,2,0.24,2.72,0.69l-0.56,1.38c-0.73-0.41-1.48-0.62-2.17-0.62c-1.08,0-1.49,0.4-1.49,0.9
			c0,1.45,4.56,0.45,4.56,3.33c0,1.31-1.09,2.43-3.33,2.43C52.07,57.01,50.82,56.64,50.12,56.1z"/>
		<path d="M70.84,50.51h-2.51v-1.48h6.84v1.48h-2.51v6.37h-1.82V50.51z"/>
		<path d="M87.3,53.42v-4.39h1.82v4.33c0,1.49,0.65,2.11,1.75,2.11c1.11,0,1.75-0.62,1.75-2.11v-4.33h1.79v4.39
			c0,2.31-1.32,3.59-3.55,3.59C88.62,57.01,87.3,55.73,87.3,53.42z"/>
		<path d="M107.45,49.03h3.56c2.57,0,4.33,1.55,4.33,3.92c0,2.38-1.76,3.92-4.33,3.92h-3.56V49.03z M110.92,55.38
			c1.56,0,2.58-0.93,2.58-2.43c0-1.5-1.02-2.43-2.58-2.43h-1.66v4.87H110.92z"/>
		<path d="M127.98,49.03h1.82v7.85h-1.82V49.03z"/>
		<path d="M142.41,52.95c0-2.33,1.82-4.06,4.29-4.06c2.47,0,4.29,1.71,4.29,4.06c0,2.34-1.83,4.06-4.29,4.06
			C144.23,57.01,142.41,55.28,142.41,52.95z M149.16,52.95c0-1.49-1.05-2.51-2.45-2.51c-1.4,0-2.45,1.02-2.45,2.51
			c0,1.49,1.05,2.51,2.45,2.51C148.11,55.46,149.16,54.44,149.16,52.95z"/>
	</g>
	<g>
		<g>
			<g>
				<path class="st0" d="M195.26,27.82c-3.23,0-5.85,2.63-5.85,5.85c0,3.23,2.63,5.85,5.85,5.85c3.23,0,5.86-2.63,5.86-5.85
					C201.12,30.45,198.49,27.82,195.26,27.82z"/>
			</g>
		</g>
		<g>
			<g>
				<g>
					<path class="st1" d="M42.59,19.39c0,5.88-1.72,10.82-4.96,14.29c-3.12,3.34-7.4,5.1-12.4,5.1c-2.93,0-6.91-1.12-9.23-3.61
						v-1.14c1.54,1.4,3.52,2.14,5.75,2.14c6.35,0,9.72-4.19,10.63-13.17c0.24-2.4,0.24-4.83,0-7.23C31.48,6.79,28.1,2.61,21.76,2.61
						c-2.24,0-4.22,0.74-5.75,2.14V3.61C18.32,1.11,22.3,0,25.23,0c4.99,0,9.28,1.76,12.4,5.09C40.88,8.56,42.59,13.5,42.59,19.39z"
						/>
				</g>
				<g>
					<path class="st1" d="M16.11,55.85v1.06H0.83v-1.06c3.17-0.95,3.31-3.02,3.31-7.2V8.5C4.14,5.63,3.4,4.79,0,3.87V2.79
						l12.71-2.77v48.62C12.71,53.03,13.03,55.05,16.11,55.85z"/>
				</g>
			</g>
			<g>
				<path class="st1" d="M75.03,1.63c-1.47-1.39-3.99-1.71-5.61-1.3c-4.15,1.05-7.54,3.85-10.37,8.56l-0.19,0.32V0.02L46.06,2.79
					v1.08C49.6,5.19,50.2,6.6,50.2,9.26v20.7c0,4.27-0.16,6.75-3.31,7.77v1.06h15.36v-1.05c-2.92-0.85-3.39-3-3.39-7.78l0.01-19.02
					c2.43-4.5,6.07-6.17,7.02-5.85c0.22,0.07,0.32,0.23,0.29,0.45c-0.08,1.23,0.42,2.53,1.38,3.56c2.18,2.02,5.4,1.99,7.47-0.08
					c0.98-0.98,1.53-2.3,1.52-3.7C76.55,3.92,76.01,2.61,75.03,1.63z"/>
			</g>
			<g>
				<path class="st1" d="M135.35,0.07v1.2c5.04,0.91,8.41,4.64,9.75,10.78h1.05V2.53C145.72,2.27,142.36,0.45,135.35,0.07z
					 M147.58,27.48c-0.72-3.53-3.39-6.88-7.5-9.44l-8.37-5.22c-4.3-2.72-5.23-6.01-4.66-8.18c0.54-2.07,2.4-3.4,5.01-3.58V0.01
					c-4.02,0.11-6.64,1.3-8.14,2.27c-1.64,1.07-2.32,2.13-2.33,2.14c-1.69,2.46-2.29,4.93-1.81,7.33c0.66,3.25,3.29,6.36,7.82,9.25
					l8.35,5.05c3.47,2.28,5.3,5.97,4.46,8.95c-0.59,2.1-2.43,3.36-5.07,3.48v1.05c3.93-0.08,6.57-1.23,8.09-2.17
					c1.66-1.04,2.4-2.08,2.4-2.09C147.53,32.86,148.13,30.17,147.58,27.48z M121.33,25.33h-1.05v10.69
					c0.44,0.31,4.29,2.87,11.78,3.4v-1.17C124.59,36.87,122.36,30.24,121.33,25.33z"/>
			</g>
			<g>
				<path class="st1" d="M155.59,25.33h-1.05v10.69c0.44,0.31,4.29,2.87,11.78,3.4v-1.17C158.85,36.87,156.61,30.24,155.59,25.33z
					 M181.84,27.48c-0.72-3.53-3.38-6.88-7.51-9.44l-8.36-5.22c-4.3-2.72-5.23-6-4.67-8.18c0.54-2.08,2.41-3.41,5.01-3.59V0.01
					c-4.02,0.11-6.64,1.3-8.14,2.27c-1.64,1.07-2.32,2.13-2.33,2.14c-1.69,2.46-2.29,4.93-1.8,7.33c0.66,3.25,3.29,6.36,7.81,9.25
					l8.36,5.05c3.47,2.28,5.3,5.97,4.46,8.95c-0.59,2.1-2.43,3.36-5.07,3.48v1.05c3.93-0.08,6.57-1.23,8.09-2.17
					c1.66-1.04,2.4-2.08,2.4-2.09C181.79,32.86,182.39,30.17,181.84,27.48z M169.61,0.07v1.2c5.04,0.91,8.41,4.63,9.75,10.78h1.05
					V2.53C179.98,2.27,176.61,0.45,169.61,0.07z"/>
			</g>
			<g>
				<path class="st1" d="M99.09,34.04c-2.04-0.31-3.84-1.03-5.36-2.12c-1.53-1.09-2.77-2.57-3.71-4.38L90,27.49l0.01-0.04
					c0.23-0.68,0.83-2.02,2.18-3.42c1.97-2.03,4.7-3.33,8.12-3.85c1.7-0.26,7.88-1.39,9.16-2.04c1.91-0.85,5.04-3.8,3.26-8.93
					c-2.33-5.94-7.24-9.04-14.59-9.2v1.11c1.41,0.27,2.79,1.14,3.92,2.48c2.67,3.16,4.27,8.11,1.48,11.51
					c-0.53,0.63-2.2,2.25-6.46,3.84c-5.8,2.16-7.63,6.46-7.71,6.65l-0.1,0.24l-0.1-0.24c-0.03-0.08-0.06-0.16-0.08-0.24l-0.03-0.09
					c-1.16-3.46-1.32-7.33-0.88-10.93c0.38-3.1,1.26-6.24,2.89-8.93c0.93-1.53,2.15-2.98,3.77-3.79V0.17
					c-9.54,1.26-15.93,9.22-15.93,19.85c0,5.03,1.82,9.99,5.01,13.62c3.34,3.8,7.91,5.89,12.86,5.89c4.55,0,8.56-1.31,11.59-3.79
					c2.22-1.82,3.94-4.32,4.6-6.72l-0.99-0.49C110.01,32.65,103.64,34.74,99.09,34.04z"/>
			</g>
		</g>
	</g>
</g>
</svg>
